<svg width="128" height="34" viewBox="0 0 128 34" fill="none" xmlns="http://www.w3.org/2000/svg">
<circle cx="14.5" cy="27.5" r="6.5" fill="#F3EDE7"/>
<rect x="30.2913" y="24.0332" width="31" height="2.5" transform="rotate(-167.725 30.2913 24.0332)" fill="#50E8A8"/>
<path d="M17.6437 18.5432L7.21568 8.26863L21.3277 4.37498L17.6437 18.5432Z" fill="#0A3322"/>
<path d="M42.1764 28.3963C41.105 28.3963 40.1325 28.1945 39.2592 27.7908C38.3858 27.3799 37.6923 26.7891 37.1786 26.0185C36.6648 25.2405 36.408 24.3011 36.408 23.2003C36.408 22.2315 36.5988 21.4463 36.9804 20.8445C37.3621 20.2353 37.8721 19.7583 38.5106 19.4134C39.1491 19.0684 39.8536 18.8116 40.6242 18.6428C41.4022 18.4666 42.1838 18.3272 42.9691 18.2244C43.9965 18.0923 44.8295 17.9933 45.468 17.9272C46.1138 17.8538 46.5835 17.7327 46.8771 17.5639C47.178 17.3951 47.3284 17.1016 47.3284 16.6832V16.5952C47.3284 15.509 47.0312 14.665 46.4367 14.0632C45.8496 13.4614 44.9579 13.1605 43.7617 13.1605C42.5214 13.1605 41.549 13.4321 40.8444 13.9751C40.1399 14.5182 39.6445 15.098 39.3583 15.7145L36.8924 14.8338C37.3327 13.8063 37.9198 13.0064 38.6537 12.4339C39.395 11.8542 40.2023 11.4505 41.0756 11.223C41.9563 10.9882 42.8223 10.8707 43.6736 10.8707C44.2167 10.8707 44.8405 10.9368 45.5451 11.0689C46.2569 11.1937 46.9431 11.4542 47.6036 11.8505C48.2715 12.2468 48.8256 12.8449 49.2659 13.6449C49.7063 14.4448 49.9264 15.5163 49.9264 16.8594V28H47.3284V25.7102H47.1963C47.0202 26.0772 46.7266 26.4698 46.3157 26.8881C45.9047 27.3065 45.3579 27.6624 44.6754 27.956C43.9929 28.2495 43.1599 28.3963 42.1764 28.3963ZM42.5728 26.0625C43.6002 26.0625 44.4662 25.8607 45.1708 25.457C45.8827 25.0534 46.4184 24.5323 46.778 23.8938C47.145 23.2553 47.3284 22.5838 47.3284 21.8793V19.5014C47.2184 19.6335 46.9762 19.7546 46.6019 19.8647C46.2349 19.9674 45.8093 20.0592 45.3249 20.1399C44.8478 20.2133 44.3818 20.2794 43.9268 20.3381C43.4791 20.3894 43.1158 20.4335 42.837 20.4702C42.1618 20.5582 41.5306 20.7013 40.9435 20.8995C40.3637 21.0903 39.894 21.3802 39.5344 21.7692C39.1821 22.1508 39.006 22.6719 39.006 23.3324C39.006 24.2351 39.3399 24.9176 40.0078 25.38C40.683 25.835 41.538 26.0625 42.5728 26.0625ZM60.5179 28.3523C58.8886 28.3523 57.4832 27.9927 56.3016 27.2734C55.1274 26.5469 54.221 25.5341 53.5825 24.2351C52.9513 22.9287 52.6358 21.4096 52.6358 19.6776C52.6358 17.9455 52.9513 16.419 53.5825 15.098C54.221 13.7696 55.109 12.7348 56.2466 11.9936C57.3914 11.245 58.7271 10.8707 60.2537 10.8707C61.1343 10.8707 62.004 11.0175 62.8627 11.3111C63.7213 11.6046 64.5029 12.0817 65.2075 12.7422C65.912 13.3954 66.4735 14.2614 66.8918 15.3402C67.3101 16.419 67.5193 17.7474 67.5193 19.3253V20.4261H54.4852V18.1804H64.8772C64.8772 17.2263 64.6864 16.375 64.3048 15.6264C63.9305 14.8778 63.3948 14.287 62.6975 13.854C62.0077 13.421 61.193 13.2045 60.2537 13.2045C59.2189 13.2045 58.3235 13.4614 57.5676 13.9751C56.819 14.4815 56.2429 15.142 55.8392 15.9567C55.4356 16.7713 55.2338 17.6446 55.2338 18.5767V20.0739C55.2338 21.3509 55.4539 22.4334 55.8943 23.3214C56.342 24.2021 56.9621 24.8736 57.7547 25.3359C58.5473 25.791 59.4684 26.0185 60.5179 26.0185C61.2004 26.0185 61.8169 25.9231 62.3673 25.7322C62.9251 25.5341 63.4058 25.2405 63.8094 24.8516C64.2131 24.4553 64.525 23.9635 64.7451 23.3764L67.2551 24.081C66.9909 24.9323 66.5469 25.6809 65.923 26.3267C65.2992 26.9652 64.5286 27.4643 63.6113 27.8239C62.6939 28.1761 61.6627 28.3523 60.5179 28.3523ZM82.2086 14.8778L79.8748 15.5384C79.728 15.1494 79.5115 14.7714 79.2253 14.4045C78.9464 14.0302 78.5648 13.7219 78.0804 13.4798C77.596 13.2376 76.9759 13.1165 76.22 13.1165C75.1852 13.1165 74.3228 13.355 73.633 13.832C72.9504 14.3017 72.6092 14.8999 72.6092 15.6264C72.6092 16.2723 72.844 16.7823 73.3137 17.1566C73.7834 17.5309 74.5173 17.8428 75.5154 18.0923L78.0254 18.7088C79.5372 19.0758 80.6637 19.6372 81.405 20.3931C82.1462 21.1417 82.5168 22.1068 82.5168 23.2884C82.5168 24.2571 82.238 25.1231 81.6802 25.8864C81.1298 26.6496 80.3592 27.2514 79.3684 27.6918C78.3776 28.1321 77.2254 28.3523 75.9117 28.3523C74.1871 28.3523 72.7596 27.978 71.6294 27.2294C70.4992 26.4808 69.7837 25.3873 69.4828 23.9489L71.9487 23.3324C72.1835 24.2424 72.6275 24.925 73.2807 25.38C73.9412 25.835 74.8035 26.0625 75.8677 26.0625C77.0786 26.0625 78.0401 25.8056 78.7519 25.2919C79.4712 24.7708 79.8308 24.147 79.8308 23.4205C79.8308 22.8333 79.6253 22.3416 79.2143 21.9453C78.8033 21.5417 78.1722 21.2408 77.3208 21.0426L74.5026 20.3821C72.9541 20.0152 71.8166 19.4464 71.09 18.6758C70.3708 17.8978 70.0112 16.9254 70.0112 15.7585C70.0112 14.8045 70.279 13.9605 70.8148 13.2266C71.3579 12.4927 72.0954 11.9165 73.0275 11.4982C73.9669 11.0799 75.0311 10.8707 76.22 10.8707C77.8933 10.8707 79.207 11.2377 80.161 11.9716C81.1224 12.7055 81.805 13.6742 82.2086 14.8778ZM95.8439 21.0866V11.0909H98.4419V28H95.8439V25.1378H95.6677C95.2714 25.9964 94.655 26.7267 93.8183 27.3285C92.9817 27.9229 91.9248 28.2202 90.6479 28.2202C89.591 28.2202 88.6516 27.989 87.8297 27.5266C87.0077 27.0569 86.3619 26.3524 85.8922 25.413C85.4225 24.4663 85.1876 23.2737 85.1876 21.8352V11.0909H87.7856V21.6591C87.7856 22.892 88.1306 23.8755 88.8204 24.6094C89.5176 25.3433 90.4057 25.7102 91.4845 25.7102C92.1303 25.7102 92.7872 25.5451 93.455 25.2148C94.1302 24.8846 94.6953 24.3782 95.1503 23.6957C95.6127 23.0131 95.8439 22.1435 95.8439 21.0866ZM101.96 28V11.0909H104.47V13.6449H104.646C104.955 12.8082 105.512 12.1294 106.32 11.6083C107.127 11.0872 108.037 10.8267 109.05 10.8267C109.241 10.8267 109.479 10.8304 109.765 10.8377C110.052 10.8451 110.268 10.8561 110.415 10.8707V13.5128C110.327 13.4908 110.125 13.4577 109.809 13.4137C109.501 13.3623 109.175 13.3366 108.83 13.3366C108.008 13.3366 107.274 13.5091 106.628 13.854C105.989 14.1916 105.483 14.6613 105.109 15.2631C104.742 15.8576 104.558 16.5365 104.558 17.2997V28H101.96ZM117.23 28.3963C116.159 28.3963 115.186 28.1945 114.313 27.7908C113.44 27.3799 112.746 26.7891 112.232 26.0185C111.719 25.2405 111.462 24.3011 111.462 23.2003C111.462 22.2315 111.653 21.4463 112.034 20.8445C112.416 20.2353 112.926 19.7583 113.565 19.4134C114.203 19.0684 114.908 18.8116 115.678 18.6428C116.456 18.4666 117.238 18.3272 118.023 18.2244C119.05 18.0923 119.883 17.9933 120.522 17.9272C121.168 17.8538 121.637 17.7327 121.931 17.5639C122.232 17.3951 122.382 17.1016 122.382 16.6832V16.5952C122.382 15.509 122.085 14.665 121.491 14.0632C120.904 13.4614 120.012 13.1605 118.816 13.1605C117.575 13.1605 116.603 13.4321 115.898 13.9751C115.194 14.5182 114.698 15.098 114.412 15.7145L111.946 14.8338C112.387 13.8063 112.974 13.0064 113.708 12.4339C114.449 11.8542 115.256 11.4505 116.13 11.223C117.01 10.9882 117.876 10.8707 118.728 10.8707C119.271 10.8707 119.894 10.9368 120.599 11.0689C121.311 11.1937 121.997 11.4542 122.658 11.8505C123.325 12.2468 123.88 12.8449 124.32 13.6449C124.76 14.4448 124.98 15.5163 124.98 16.8594V28H122.382V25.7102H122.25C122.074 26.0772 121.781 26.4698 121.37 26.8881C120.959 27.3065 120.412 27.6624 119.729 27.956C119.047 28.2495 118.214 28.3963 117.23 28.3963ZM117.627 26.0625C118.654 26.0625 119.52 25.8607 120.225 25.457C120.937 25.0534 121.472 24.5323 121.832 23.8938C122.199 23.2553 122.382 22.5838 122.382 21.8793V19.5014C122.272 19.6335 122.03 19.7546 121.656 19.8647C121.289 19.9674 120.863 20.0592 120.379 20.1399C119.902 20.2133 119.436 20.2794 118.981 20.3381C118.533 20.3894 118.17 20.4335 117.891 20.4702C117.216 20.5582 116.585 20.7013 115.997 20.8995C115.418 21.0903 114.948 21.3802 114.588 21.7692C114.236 22.1508 114.06 22.6719 114.06 23.3324C114.06 24.2351 114.394 24.9176 115.062 25.38C115.737 25.835 116.592 26.0625 117.627 26.0625Z" fill="#09090B"/>
</svg>
